<svg width="212" height="130" viewBox="0 0 212 130" fill="none" xmlns="http://www.w3.org/2000/svg">
  <path d="M26.3066 118.544H19.0115V115.623C16.8008 117.87 13.927 119.217 10.1689 119.217C3.97915 119.217 0 115.623 0 110.457C0 105.066 4.20021 101.922 11.0532 101.922H18.3483V100.574C18.3483 97.2046 16.3587 95.4076 12.8217 95.4076C9.7268 95.4076 7.73723 96.7553 5.08446 99.4508L0.884258 94.5091C4.20021 90.4659 8.40042 88.4443 13.7059 88.4443C21.2221 88.4443 26.3066 92.9367 26.3066 101.248V118.544ZM18.3483 107.088H12.1585C9.50574 107.088 8.17936 108.211 8.17936 110.008C8.17936 112.03 9.7268 113.153 12.3796 113.153C15.9166 113.153 18.5693 110.682 18.5693 107.312V107.088H18.3483Z" fill="black"/>
  <path d="M37.3598 106.415C38.2441 110.233 41.339 112.255 45.5392 112.255C48.413 112.255 51.0658 111.132 53.7185 109.335L57.0345 114.95C53.4975 117.87 49.7394 119.443 45.3181 119.443C36.2545 119.667 29.1805 112.479 29.4015 103.944C29.1805 95.4083 36.2545 88.2204 44.6549 88.4451C52.8343 88.4451 58.3609 94.5098 58.3609 102.147C58.3609 103.495 58.1398 105.067 57.9187 106.639H37.3598V106.415ZM50.6236 100.799C50.6236 97.2053 47.7498 94.7344 44.2128 94.7344C40.8968 94.7344 38.2441 96.9806 37.3598 100.799H50.6236Z" fill="black"/>
  <path d="M90.8568 88.8945V115.175C90.8568 124.834 84.888 130 75.8244 130C70.2978 130 65.6555 128.203 61.4553 124.385L65.6555 118.769C68.9715 121.24 71.6242 122.588 75.1612 122.588C79.8036 122.588 82.8985 120.117 82.8985 115.624V114.052C80.6878 116.298 77.814 117.646 74.0559 117.646C65.8766 117.646 60.1289 111.581 60.1289 102.821C60.1289 94.0608 66.0976 88.2207 74.0559 88.2207C78.2561 88.2207 81.5721 89.793 83.5616 92.4885V88.6699H90.8568V88.8945ZM75.6034 95.1839C71.4032 95.1839 68.0872 98.104 68.0872 102.821C68.0872 107.538 71.4032 110.683 75.6034 110.683C79.5825 110.683 82.8985 107.763 82.8985 102.596C82.8985 97.4301 79.5825 95.1839 75.6034 95.1839Z" fill="black"/>
  <path d="M95.5 88.894H103.458V106.19C103.458 109.559 105.669 111.805 108.985 111.805C112.08 111.805 114.511 109.559 114.511 106.19V88.894H122.47V105.516C122.47 113.827 116.722 119.218 108.985 119.218C101.248 119.218 95.5 113.602 95.5 105.516V88.894Z" fill="black"/>
  <path d="M151.428 118.544H144.133V115.623C141.922 117.87 139.048 119.217 135.29 119.217C129.1 119.217 125.121 115.623 125.121 110.457C125.121 105.066 129.321 101.922 136.174 101.922H143.469V100.574C143.469 97.2046 141.48 95.4076 137.943 95.4076C134.848 95.4076 132.858 96.7553 130.206 99.4508L126.005 94.5091C129.321 90.4659 133.522 88.4443 138.827 88.4443C146.343 88.4443 151.428 92.9367 151.428 101.248V118.544ZM143.469 107.088H137.28C134.627 107.088 133.3 108.211 133.3 110.008C133.3 112.03 134.848 113.153 137.501 113.153C141.038 113.153 143.69 110.682 143.69 107.312V107.088H143.469Z" fill="black"/>
  <path d="M183.04 118.544H175.082V101.249C175.082 97.8794 172.871 95.4086 169.555 95.4086C166.239 95.4086 164.029 97.6547 164.029 101.249V118.544H156.07V88.8945H163.365V91.59C165.355 89.5684 168.45 88.2207 171.987 88.2207C178.84 88.2207 183.04 92.9377 183.04 100.126V118.544Z" fill="black"/>
  <path d="M212 118.544H204.705V115.623C202.494 117.87 199.62 119.217 195.862 119.217C189.672 119.217 185.693 115.623 185.693 110.457C185.693 105.066 189.894 101.922 196.747 101.922H204.042V100.574C204.042 97.2046 202.052 95.4076 198.515 95.4076C195.42 95.4076 193.431 96.7553 190.778 99.4508L186.578 94.5091C189.894 90.4659 194.094 88.4443 199.399 88.4443C206.915 88.4443 212 92.9367 212 101.248V118.544ZM204.042 107.088H197.852C195.199 107.088 193.873 108.211 193.873 110.008C193.873 112.03 195.42 113.153 198.073 113.153C201.61 113.153 204.263 110.682 204.263 107.312V107.088H204.042Z" fill="black"/>
  <path fill-rule="evenodd" clip-rule="evenodd" d="M101.246 51.8316L80.9077 72.4967C79.8024 73.6198 78.0339 73.6198 76.9286 72.4967L56.5907 51.8316C55.4854 50.7085 55.4854 48.9116 56.5907 47.7885L76.9286 27.1233C78.0339 26.0002 79.8024 26.0002 80.9077 27.1233L101.246 47.7885C102.351 49.1362 102.351 50.7085 101.246 51.8316Z" fill="#6A4A99"/>
  <path fill-rule="evenodd" clip-rule="evenodd" d="M127.333 25.5506L106.996 46.2157C105.89 47.3388 104.122 47.3388 103.016 46.2157L82.6786 25.5506C81.5733 24.4275 81.5733 22.6305 82.6786 21.5074L103.016 0.842327C104.122 -0.280776 105.89 -0.280776 106.996 0.842327L127.333 21.5074C128.439 22.6305 128.439 24.4275 127.333 25.5506Z" fill="#D6368C"/>
  <path fill-rule="evenodd" clip-rule="evenodd" d="M153.417 52.0552L133.08 72.7203C131.974 73.8434 130.206 73.8434 129.1 72.7203L108.763 52.0552C107.657 50.9321 107.657 49.1352 108.763 48.0121L129.1 27.347C130.206 26.2239 131.974 26.2239 133.08 27.347L153.417 48.0121C154.523 49.1352 154.523 50.9321 153.417 52.0552Z" fill="#34B4A4"/>
</svg>