<svg width="36" height="30" viewBox="0 0 36 30" fill="none" xmlns="http://www.w3.org/2000/svg">
<path id="Vector" d="M7.14708 7.58044L14.0027 0.762544C14.2929 0.475444 14.6735 0.330444 15.0542 0.330444C15.9481 0.330444 16.5417 1.06269 16.5417 1.82249C16.5417 2.18499 16.4075 2.55329 16.1056 2.85344L11.3515 7.58044H7.14708ZM24.6485 7.58044H28.8529L21.9958 0.762544C21.7071 0.475444 21.3265 0.330444 20.9458 0.330444C20.0519 0.330444 19.4583 1.06269 19.4583 1.82249C19.4583 2.18499 19.5925 2.55329 19.8944 2.85344L24.6485 7.58044ZM35.5 10.4804V13.3804H34.5638C33.785 13.3804 33.0733 13.8227 32.7306 14.5201L26.75 29.3304H9.25L3.26938 14.5172C2.92813 13.8212 2.21646 13.3804 1.43771 13.3804H0.5V10.4804H35.5ZM13.625 16.2804C13.625 15.48 12.9717 14.8304 12.1667 14.8304C11.3617 14.8304 10.7083 15.48 10.7083 16.2804V23.5304C10.7083 24.3308 11.3617 24.9804 12.1667 24.9804C12.9717 24.9804 13.625 24.3308 13.625 23.5304V16.2804ZM19.4583 16.2804C19.4583 15.48 18.805 14.8304 18 14.8304C17.195 14.8304 16.5417 15.48 16.5417 16.2804V23.5304C16.5417 24.3308 17.195 24.9804 18 24.9804C18.805 24.9804 19.4583 24.3308 19.4583 23.5304V16.2804ZM25.2917 16.2804C25.2917 15.48 24.6398 14.8304 23.8333 14.8304C23.0269 14.8304 22.375 15.48 22.375 16.2804V23.5304C22.375 24.3308 23.0269 24.9804 23.8333 24.9804C24.6398 24.9804 25.2917 24.3308 25.2917 23.5304V16.2804Z" fill="white"/>
</svg>
