<svg width="270" height="620" viewBox="0 0 270 620" fill="none" xmlns="http://www.w3.org/2000/svg">
<rect width="270" height="620" rx="8.37022" fill="#231F20"/>
<g filter="url(#filter0_i_2603_4471)">
<path d="M227.248 31.187H43.4291C36.6683 31.187 31.1875 36.6678 31.1875 43.4286V345.879C31.1875 352.64 36.6683 358.121 43.4291 358.121H227.248C234.009 358.121 239.49 352.64 239.49 345.879V43.4286C239.49 36.6678 234.009 31.187 227.248 31.187Z" fill="white"/>
</g>
<rect x="191.488" y="384.849" width="45.6841" height="60.4963" rx="4.69534" fill="#231F20" stroke="#DDDDDD" stroke-width="1.24749"/>
<rect x="195.814" y="391.027" width="37.0305" height="19.441" rx="4.0716" fill="white" fill-opacity="0.5"/>
<path d="M145.684 404.791L135.038 415.437L124.387 404.791L119.001 410.177L135.038 426.209L140.424 420.823L151.07 410.177L145.684 404.791Z" fill="white"/>
<path d="M145.684 377L135.038 387.647L124.387 377L119.001 382.386L135.038 398.418L140.424 393.032L151.07 382.386L145.684 377Z" fill="white"/>
<path d="M145.684 432.581L135.038 443.228L124.387 432.581L119.001 437.967L135.038 454L140.424 448.614L151.07 437.967L145.684 432.581Z" fill="white"/>
<g filter="url(#filter1_dd_2603_4471)">
<path d="M208.468 472.404H62.236C58.8674 472.404 56.1367 474.84 56.1367 477.845V520.143C56.1367 523.148 58.8674 525.584 62.236 525.584H208.468C211.837 525.584 214.567 523.148 214.567 520.143V477.845C214.567 474.84 211.837 472.404 208.468 472.404Z" fill="black"/>
<path d="M208.468 471.149H62.236C58.3127 471.149 54.8812 474.016 54.8812 477.845V520.143C54.8812 523.972 58.3127 526.839 62.236 526.839H208.468C212.391 526.839 215.823 523.972 215.823 520.143V477.845C215.823 474.016 212.391 471.149 208.468 471.149Z" stroke="white" stroke-width="2.51107"/>
</g>
<path d="M77.6658 494.123C77.1389 494.123 76.6713 494.226 76.2628 494.433C75.8603 494.635 75.5199 494.928 75.2417 495.312C74.9694 495.697 74.7622 496.162 74.6201 496.707C74.478 497.251 74.407 497.864 74.407 498.545C74.407 499.462 74.5195 500.247 74.7444 500.898C74.9753 501.543 75.3305 502.037 75.8099 502.381C76.2894 502.718 76.908 502.887 77.6658 502.887C78.1926 502.887 78.7195 502.827 79.2463 502.709C79.7791 502.591 80.3562 502.422 80.9778 502.203V504.512C80.4036 504.748 79.8383 504.917 79.2818 505.018C78.7254 505.124 78.1009 505.178 77.4083 505.178C76.0704 505.178 74.9694 504.902 74.1051 504.352C73.2467 503.795 72.6104 503.02 72.196 502.025C71.7816 501.025 71.5744 499.859 71.5744 498.527C71.5744 497.544 71.7076 496.644 71.974 495.827C72.2404 495.011 72.6311 494.303 73.1461 493.705C73.6611 493.107 74.2975 492.646 75.0552 492.32C75.8129 491.995 76.6831 491.832 77.6658 491.832C78.311 491.832 78.9562 491.915 79.6015 492.08C80.2526 492.24 80.8742 492.462 81.4662 492.746L80.5782 494.984C80.0928 494.753 79.6044 494.552 79.1131 494.38C78.6218 494.208 78.1393 494.123 77.6658 494.123ZM95.5313 498.491C95.5313 499.492 95.407 500.403 95.1584 501.226C94.9097 502.043 94.5309 502.748 94.0218 503.34C93.5186 503.932 92.8793 504.387 92.1038 504.707C91.3283 505.021 90.4108 505.178 89.3512 505.178C88.2915 505.178 87.374 505.021 86.5985 504.707C85.823 504.387 85.1808 503.932 84.6717 503.34C84.1685 502.748 83.7926 502.04 83.544 501.217C83.2954 500.395 83.171 499.48 83.171 498.474C83.171 497.13 83.3901 495.961 83.8281 494.966C84.2721 493.966 84.9529 493.19 85.8704 492.64C86.788 492.089 87.9541 491.814 89.3689 491.814C90.7778 491.814 91.9351 492.089 92.8408 492.64C93.7524 493.19 94.4273 493.966 94.8653 494.966C95.3093 495.967 95.5313 497.142 95.5313 498.491ZM86.0569 498.491C86.0569 499.397 86.1693 500.178 86.3943 500.836C86.6252 501.487 86.9833 501.99 87.4687 502.345C87.9541 502.694 88.5816 502.869 89.3512 502.869C90.1326 502.869 90.766 502.694 91.2514 502.345C91.7368 501.99 92.089 501.487 92.308 500.836C92.533 500.178 92.6455 499.397 92.6455 498.491C92.6455 497.13 92.3909 496.058 91.8818 495.277C91.3727 494.496 90.5351 494.105 89.3689 494.105C88.5934 494.105 87.96 494.282 87.4687 494.638C86.9833 494.987 86.6252 495.49 86.3943 496.147C86.1693 496.798 86.0569 497.58 86.0569 498.491ZM98.2218 505V492.018H100.974V502.727H106.24V505H98.2218ZM108.504 505V492.018H111.257V502.727H116.522V505H108.504ZM126.263 505H118.787V492.018H126.263V494.274H121.539V497.124H125.935V499.379H121.539V502.727H126.263V505ZM134.494 494.123C133.968 494.123 133.5 494.226 133.092 494.433C132.689 494.635 132.349 494.928 132.07 495.312C131.798 495.697 131.591 496.162 131.449 496.707C131.307 497.251 131.236 497.864 131.236 498.545C131.236 499.462 131.348 500.247 131.573 500.898C131.804 501.543 132.159 502.037 132.639 502.381C133.118 502.718 133.737 502.887 134.494 502.887C135.021 502.887 135.548 502.827 136.075 502.709C136.608 502.591 137.185 502.422 137.807 502.203V504.512C137.232 504.748 136.667 504.917 136.111 505.018C135.554 505.124 134.93 505.178 134.237 505.178C132.899 505.178 131.798 504.902 130.934 504.352C130.075 503.795 129.439 503.02 129.025 502.025C128.61 501.025 128.403 499.859 128.403 498.527C128.403 497.544 128.536 496.644 128.803 495.827C129.069 495.011 129.46 494.303 129.975 493.705C130.49 493.107 131.126 492.646 131.884 492.32C132.642 491.995 133.512 491.832 134.494 491.832C135.14 491.832 135.785 491.915 136.43 492.08C137.081 492.24 137.703 492.462 138.295 492.746L137.407 494.984C136.922 494.753 136.433 494.552 135.942 494.38C135.451 494.208 134.968 494.123 134.494 494.123ZM145.585 505H142.832V494.309H139.307V492.018H149.11V494.309H145.585V505ZM166.47 505H163.726V499.397H158.585V505H155.832V492.018H158.585V497.106H163.726V492.018H166.47V505ZM177.231 505H169.755V492.018H177.231V494.274H172.508V497.124H176.903V499.379H172.508V502.727H177.231V505ZM183.731 492.018C184.909 492.018 185.88 492.16 186.644 492.444C187.413 492.729 187.985 493.158 188.357 493.732C188.73 494.306 188.917 495.031 188.917 495.907C188.917 496.499 188.804 497.017 188.579 497.461C188.355 497.905 188.059 498.281 187.692 498.589C187.324 498.897 186.928 499.148 186.502 499.344L190.32 505H187.265L184.166 500.019H182.701V505H179.949V492.018H183.731ZM183.536 494.274H182.701V497.781H183.589C184.501 497.781 185.152 497.63 185.543 497.328C185.939 497.02 186.138 496.57 186.138 495.978C186.138 495.363 185.924 494.925 185.498 494.664C185.078 494.404 184.424 494.274 183.536 494.274ZM199.43 505H191.954V492.018H199.43V494.274H194.706V497.124H199.102V499.379H194.706V502.727H199.43V505Z" fill="white"/>
<g opacity="0.7">
<g clip-path="url(#clip0_2603_4471)">
<path d="M47.4536 566.001C41.6803 566.001 37 570.681 37 576.455C37 582.228 41.6803 586.908 47.4536 586.908C53.2268 586.908 57.9072 582.228 57.9072 576.455C57.9072 570.681 53.2274 566.001 47.4536 566.001ZM48.3153 581.725C48.0791 581.977 47.7529 582.116 47.3965 582.116C46.8418 582.116 46.3332 581.781 46.1009 581.262L41.794 572.146H44.6565L48.5207 580.291C48.5932 580.449 48.6355 580.612 48.6465 580.779C48.6701 581.136 48.5525 581.472 48.3158 581.725M52.5689 574.143L52.5667 574.148C52.5639 574.152 52.5617 574.157 52.5595 574.162L51.1585 577.01C51.0992 577.13 50.9218 577.13 50.8625 577.01L49.4609 574.161C49.4587 574.157 49.4571 574.153 49.4554 574.149L49.4521 574.143C49.3461 573.92 49.2868 573.671 49.2868 573.408C49.2868 572.46 50.0601 571.688 51.0102 571.688C51.9604 571.688 52.7342 572.46 52.7342 573.408C52.7342 573.671 52.6743 573.92 52.5689 574.143" fill="#1D1D1B"/>
</g>
<g clip-path="url(#clip1_2603_4471)">
<path d="M107.815 583.714C110.497 582.544 110.618 580.332 110.654 579.476C110.76 576.95 108.374 575.94 107.581 575.625C106.355 575.139 103.489 574.574 102.732 574.303C102.338 574.162 102.019 573.967 101.748 573.75C101.562 573.6 101.106 572.75 101.982 572.236C102.282 572.059 102.881 571.815 104.136 571.815C106.677 571.815 108.086 572.953 108.639 573.354L110.653 570.937C109.625 570.042 108.584 569.475 107.508 569.135C106.516 568.821 105.461 568.66 104.372 568.66C103.088 568.66 100.462 568.866 98.8435 570.906C98.2531 571.65 97.0789 574.331 99.4438 576.245C100.859 577.391 102.897 577.88 104.077 578.124C104.908 578.296 106.357 578.658 106.827 579.128C106.99 579.291 107.106 579.479 107.077 579.739C106.945 580.943 105.277 581.127 104.24 581.127C103.304 581.127 102.427 580.955 101.601 580.709C100.198 580.29 99.089 579.223 99.089 579.223L97.2168 581.665C97.2168 581.665 98.1466 582.833 100.418 583.719C101.587 584.174 104.937 584.97 107.816 583.714" fill="#1D1D1B"/>
<path d="M91.071 568.948V576.985C91.071 578.149 90.7025 579.116 89.9759 579.86C89.2587 580.596 88.3563 580.973 87.2958 580.98C86.2347 580.973 85.3329 580.596 84.6151 579.86C83.8885 579.116 83.5206 578.148 83.5206 576.985V568.948L79.8711 568.937V576.598C79.8711 578.99 80.5005 580.768 81.851 582.192C83.2191 583.635 85.0408 584.374 87.2651 584.388H87.3007H87.3364C89.5563 584.372 91.3742 583.633 92.7401 582.192C94.0906 580.768 94.72 578.99 94.72 576.598V568.958L91.071 568.947V568.948Z" fill="#1D1D1B"/>
<path d="M70.972 583.862C70.6485 584.208 70.2015 584.398 69.7132 584.398C68.9537 584.398 68.2567 583.939 67.9382 583.23L61.0566 568.893H64.9791L71.2526 581.897C71.3521 582.113 71.4097 582.338 71.4245 582.565C71.4569 583.055 71.296 583.516 70.9715 583.862" fill="#1D1D1B"/>
<path d="M76.7154 572.435L76.7115 572.444C76.7077 572.451 76.7044 572.46 76.7 572.467L74.4702 577C74.3763 577.192 74.0929 577.192 73.999 577L71.7681 572.465C71.7654 572.459 71.7615 572.453 71.7588 572.446L71.7533 572.436C71.5847 572.081 71.4902 571.684 71.4902 571.266C71.4902 569.756 72.721 568.527 74.2335 568.527C75.746 568.527 76.9773 569.756 76.9773 571.266C76.9773 571.685 76.8823 572.081 76.7143 572.436" fill="#1D1D1B"/>
<path d="M120.999 571.886C123.058 571.886 124.766 573.383 125.096 575.348H116.9C117.231 573.383 118.939 571.886 120.998 571.886M128.474 577.945C128.578 577.363 129.177 573.241 126.061 570.547C125.066 569.686 123.371 568.66 120.951 568.66C116.664 568.66 113.176 572.185 113.176 576.516C113.176 578.415 113.839 580.237 115.042 581.645C116.241 583.048 117.93 583.986 119.795 584.285C121.163 584.504 122.5 584.368 123.766 583.881C124.83 583.471 125.81 582.819 126.601 581.997L124.087 579.729C123.327 580.573 122.224 581.104 120.999 581.104C119.046 581.104 117.409 579.758 116.963 577.943H122.739L128.475 577.946L128.474 577.945Z" fill="#1D1D1B"/>
</g>
</g>
<g opacity="0.7">
<path d="M218.594 576.44C218.594 580.981 222.256 584.64 226.794 584.64C231.331 584.64 234.996 580.978 234.996 576.44C234.996 571.903 231.313 568.241 226.796 568.241C222.28 568.241 218.597 571.923 218.597 576.44L218.594 576.44ZM232.17 576.44C232.17 579.582 229.742 582.034 226.796 582.034C223.851 582.034 221.399 579.58 221.399 576.44C221.399 573.301 223.853 570.847 226.796 570.847C229.74 570.847 232.17 573.325 232.17 576.44ZM193.807 568.531L190.905 568.531L186.378 578.492L181.851 568.531L178.949 568.531L186.378 584.878L193.807 568.531ZM195.001 568.531L195.001 584.352L205.153 584.352L206.33 581.765L197.882 581.765L197.882 577.737L201.562 577.737L202.738 575.149L197.882 575.149L197.882 571.121L204.568 571.121L205.744 568.533L195.004 568.533L195.001 568.531ZM217.815 584.352L219.002 581.741L211.069 581.741L211.069 568.528L208.191 568.528L208.191 584.35L217.818 584.35L217.815 584.352Z" fill="#1D1D1B"/>
<g style="mix-blend-mode:color">
<path d="M156.959 569.74L171.712 576.444L170.591 576.953L156.959 570.76V575.276L165.619 579.211L158.545 582.426L158.543 581.419L163.392 579.217L156.959 576.294V578.034L159.548 579.21L156.959 580.387V584.916L169.478 579.228L158.543 574.259V573.229L170.612 578.713L175.577 576.457L156.959 567.998V569.74Z" fill="#1D1D1B"/>
</g>
<path d="M156.959 569.734L171.712 576.437L170.591 576.946L156.959 570.753V575.27L165.619 579.205L158.545 582.419L158.543 581.412L163.392 579.21L156.959 576.287V578.027L159.548 579.204L156.959 580.38V584.91L169.478 579.221L158.543 574.254V573.224L170.612 578.707L175.577 576.451L156.959 567.991V569.734Z" fill="#1D1D1B"/>
</g>
<defs>
<filter id="filter0_i_2603_4471" x="31.1875" y="31.187" width="210.798" height="331.924" filterUnits="userSpaceOnUse" color-interpolation-filters="sRGB">
<feFlood flood-opacity="0" result="BackgroundImageFix"/>
<feBlend mode="normal" in="SourceGraphic" in2="BackgroundImageFix" result="shape"/>
<feColorMatrix in="SourceAlpha" type="matrix" values="0 0 0 0 0 0 0 0 0 0 0 0 0 0 0 0 0 0 127 0" result="hardAlpha"/>
<feOffset dx="2.49497" dy="4.98994"/>
<feGaussianBlur stdDeviation="6.23742"/>
<feComposite in2="hardAlpha" operator="arithmetic" k2="-1" k3="1"/>
<feColorMatrix type="matrix" values="0 0 0 0 0 0 0 0 0 0 0 0 0 0 0 0 0 0 0.25 0"/>
<feBlend mode="normal" in2="shape" result="effect1_innerShadow_2603_4471"/>
</filter>
<filter id="filter1_dd_2603_4471" x="20.494" y="436.761" width="229.716" height="124.465" filterUnits="userSpaceOnUse" color-interpolation-filters="sRGB">
<feFlood flood-opacity="0" result="BackgroundImageFix"/>
<feColorMatrix in="SourceAlpha" type="matrix" values="0 0 0 0 0 0 0 0 0 0 0 0 0 0 0 0 0 0 127 0" result="hardAlpha"/>
<feOffset/>
<feGaussianBlur stdDeviation="11.044"/>
<feComposite in2="hardAlpha" operator="out"/>
<feColorMatrix type="matrix" values="0 0 0 0 0.113725 0 0 0 0 0.113725 0 0 0 0 0.105882 0 0 0 1 0"/>
<feBlend mode="normal" in2="BackgroundImageFix" result="effect1_dropShadow_2603_4471"/>
<feColorMatrix in="SourceAlpha" type="matrix" values="0 0 0 0 0 0 0 0 0 0 0 0 0 0 0 0 0 0 127 0" result="hardAlpha"/>
<feOffset/>
<feGaussianBlur stdDeviation="16.566"/>
<feComposite in2="hardAlpha" operator="out"/>
<feColorMatrix type="matrix" values="0 0 0 0 1 0 0 0 0 1 0 0 0 0 1 0 0 0 0.25 0"/>
<feBlend mode="normal" in2="effect1_dropShadow_2603_4471" result="effect2_dropShadow_2603_4471"/>
<feBlend mode="normal" in="SourceGraphic" in2="effect2_dropShadow_2603_4471" result="shape"/>
</filter>
<clipPath id="clip0_2603_4471">
<rect width="20.9072" height="20.9072" fill="white" transform="translate(37 566)"/>
</clipPath>
<clipPath id="clip1_2603_4471">
<rect width="67.5281" height="15.872" fill="white" transform="translate(61.0586 568.527)"/>
</clipPath>
</defs>
</svg>
