<svg width="117" height="117" viewBox="0 0 117 117" fill="none" xmlns="http://www.w3.org/2000/svg">
  <g opacity="0.7">
    <path d="M107.063 47.0577C106.756 46.1676 106.197 45.3858 105.454 44.807C104.711 44.2283 103.816 43.8775 102.878 43.7972L75.188 39.7581L62.7786 14.5987C62.3801 13.7759 61.7579 13.0821 60.9833 12.5965C60.2087 12.111 59.313 11.8535 58.3988 11.8535C57.4846 11.8535 56.5889 12.111 55.8143 12.5965C55.0397 13.0821 54.4175 13.7759 54.0191 14.5987L41.6097 39.7094L13.9197 43.7972C13.0191 43.9253 12.1723 44.3032 11.4756 44.8881C10.7788 45.473 10.26 46.2415 9.97795 47.1064C9.71976 47.9516 9.69659 48.8511 9.91092 49.7084C10.1253 50.5658 10.569 51.3486 11.1946 51.9728L31.2929 71.4385L26.4265 99.0798C26.2527 99.9921 26.3437 100.935 26.6886 101.797C27.0335 102.66 27.618 103.405 28.373 103.946C29.1089 104.472 29.9769 104.783 30.8795 104.843C31.7821 104.903 32.6836 104.711 33.4828 104.287L58.3988 91.2935L83.2176 104.336C83.9006 104.721 84.672 104.922 85.4561 104.919C86.487 104.923 87.4924 104.599 88.3273 103.995C89.0823 103.454 89.6668 102.708 90.0117 101.846C90.3567 100.984 90.4476 100.041 90.2739 99.1284L85.4075 71.4872L105.506 52.0215C106.208 51.4262 106.728 50.6438 107.003 49.7652C107.279 48.8865 107.3 47.9477 107.063 47.0577ZM77.1346 66.5234C76.5639 67.0754 76.1369 67.7587 75.8909 68.5137C75.6449 69.2686 75.5874 70.0723 75.7233 70.8545L79.2271 91.2448L60.9294 81.512C60.2253 81.1371 59.4398 80.941 58.6422 80.941C57.8445 80.941 57.059 81.1371 56.3549 81.512L38.0572 91.2448L41.561 70.8545C41.697 70.0723 41.6394 69.2686 41.3934 68.5137C41.1475 67.7587 40.7205 67.0754 40.1498 66.5234L25.5505 51.9242L46.0381 48.9556C46.8265 48.846 47.5759 48.5446 48.2207 48.078C48.8655 47.6114 49.386 46.9937 49.7366 46.2791L58.3988 27.738L67.5477 46.3278C67.8983 47.0424 68.4188 47.66 69.0636 48.1267C69.7084 48.5933 70.4578 48.8946 71.2462 49.0043L91.7338 51.9728L77.1346 66.5234Z" fill="#231F20"/>
  </g>
</svg>