<svg width="117" height="118" viewBox="0 0 117 118" fill="none" xmlns="http://www.w3.org/2000/svg">
<path d="M107.065 47.8519C106.758 46.9618 106.199 46.18 105.456 45.6012C104.713 45.0225 103.818 44.6717 102.88 44.5914L75.19 40.5523L62.7806 15.3929C62.3821 14.5701 61.7599 13.8762 60.9853 13.3907C60.2107 12.9052 59.315 12.6477 58.4008 12.6477C57.4866 12.6477 56.5909 12.9052 55.8163 13.3907C55.0417 13.8762 54.4195 14.5701 54.021 15.3929L41.6116 40.5036L13.9217 44.5914C13.021 44.7194 12.1743 45.0974 11.4775 45.6823C10.7808 46.2672 10.262 47.0357 9.9799 47.9006C9.72171 48.7458 9.69854 49.6453 9.91288 50.5026C10.1272 51.36 10.571 52.1428 11.1965 52.767L31.2948 72.2327L26.4284 99.874C26.2547 100.786 26.3456 101.729 26.6906 102.592C27.0355 103.454 27.62 104.2 28.375 104.74C29.1109 105.266 29.9788 105.577 30.8814 105.637C31.784 105.697 32.6855 105.505 33.4847 105.081L58.4008 92.0877L83.2196 105.13C83.9025 105.515 84.6739 105.716 85.4581 105.714C86.4889 105.717 87.4943 105.394 88.3293 104.789C89.0843 104.248 89.6688 103.503 90.0137 102.64C90.3586 101.778 90.4496 100.835 90.2759 99.9226L85.4094 72.2814L105.508 52.8157C106.21 52.2204 106.73 51.438 107.005 50.5594C107.281 49.6807 107.302 48.7419 107.065 47.8519ZM77.1365 67.3176C76.5658 67.8696 76.1388 68.5529 75.8928 69.3078C75.6469 70.0628 75.5893 70.8665 75.7253 71.6487L79.2291 92.039L60.9313 82.3062C60.2273 81.9313 59.4418 81.7352 58.6441 81.7352C57.8464 81.7352 57.061 81.9313 56.3569 82.3062L38.0592 92.039L41.563 71.6487C41.6989 70.8665 41.6414 70.0628 41.3954 69.3078C41.1494 68.5529 40.7224 67.8696 40.1517 67.3176L25.5525 52.7184L46.0401 49.7498C46.8284 49.6402 47.5779 49.3388 48.2227 48.8722C48.8675 48.4055 49.388 47.7879 49.7386 47.0733L58.4008 28.5322L67.5497 47.122C67.9003 47.8365 68.4208 48.4542 69.0656 48.9209C69.7104 49.3875 70.4598 49.6888 71.2482 49.7985L91.7358 52.767L77.1365 67.3176Z" fill="#231F20"/>
<path d="M77.1365 67.3176C76.5658 67.8696 76.1388 68.5529 75.8928 69.3078C75.6469 70.0628 75.5893 70.8665 75.7253 71.6487L79.2291 92.039L60.9313 82.3062C60.2273 81.9313 59.4418 81.7352 58.6441 81.7352C57.8464 81.7352 57.061 81.9313 56.3569 82.3062L38.0592 92.039L41.563 71.6487C41.6989 70.8665 41.6414 70.0628 41.3954 69.3078C41.1494 68.5529 40.7224 67.8696 40.1517 67.3176L25.5525 52.7184L46.0401 49.7498C46.8284 49.6402 47.5779 49.3388 48.2227 48.8722C48.8675 48.4055 49.388 47.7879 49.7386 47.0733L58.4008 28.5322L67.5497 47.122C67.9003 47.8365 68.4208 48.4542 69.0656 48.9209C69.7104 49.3875 70.4598 49.6888 71.2482 49.7985L91.7358 52.767L77.1365 67.3176Z" fill="#231F20"/>
</svg> 